<?xml version="1.0" standalone="no"?><!DOCTYPE svg PUBLIC "-//W3C//DTD SVG 1.1//EN" "http://www.w3.org/Graphics/SVG/1.1/DTD/svg11.dtd"><svg class="icon" width="32px" height="32.00px" viewBox="0 0 1024 1024" version="1.1" xmlns="http://www.w3.org/2000/svg"><path d="M512 896a384 384 0 1 0 0-768 384 384 0 0 0 0 768z" fill="#FFCC00" /><path d="M96 512c0-229.76 186.24-416 416-416s416 186.24 416 416-186.24 416-416 416S96 741.76 96 512z m685.781333 226.133333a350.421333 350.421333 0 0 0 80.768-194.133333h-148.48a813.226667 813.226667 0 0 1-17.578666 144.128 402.773333 402.773333 0 0 1 85.290666 50.005333z m-45.952 45.525334a338.730667 338.730667 0 0 0-56.32-32.981334c-5.333333 16.170667-11.221333 31.488-17.578666 45.866667-6.954667 15.616-14.592 30.293333-22.912 43.861333a351.786667 351.786667 0 0 0 96.853333-56.746666z m-100.266666-116.821334c7.765333-37.589333 12.8-78.976 14.506666-122.837333H373.930667c1.706667 43.861333 6.741333 85.248 14.506666 122.88 38.954667-10.581333 80.512-16.213333 123.562667-16.213333s84.608 5.674667 123.562667 16.213333zM404.693333 728.746667c4.864 14.933333 10.197333 28.885333 15.914667 41.813333 14.336 32.256 30.634667 56.448 47.061333 72.106667 16.298667 15.488 31.232 21.333333 44.373334 21.333333 13.141333 0 28.074667-5.845333 44.373333-21.333333 16.426667-15.658667 32.725333-39.850667 47.061333-72.106667 5.717333-12.928 11.093333-26.88 15.914667-41.813333A410.154667 410.154667 0 0 0 512 714.666667c-37.717333 0-73.813333 4.992-107.349333 14.08z m-77.141333-40.618667a813.141333 813.141333 0 0 1-17.621333-144.128h-148.48a350.421333 350.421333 0 0 0 80.810666 194.133333 402.773333 402.773333 0 0 1 85.290667-50.005333z m-39.338667 95.573333a351.658667 351.658667 0 0 0 96.853334 56.704 371.114667 371.114667 0 0 1-22.954667-43.861333c-6.4-14.378667-12.245333-29.696-17.578667-45.866667a338.773333 338.773333 0 0 0-56.32 32.981334z m425.941334-303.701333h148.48a350.421333 350.421333 0 0 0-80.810667-194.133333 402.773333 402.773333 0 0 1-85.290667 50.005333c9.728 44.458667 15.786667 93.098667 17.621334 144.128z m-75.093334-296.405333c8.32 13.568 15.957333 28.245333 22.912 43.861333 6.4 14.378667 12.245333 29.696 17.578667 45.866667a339.029333 339.029333 0 0 0 56.32-32.981334 351.701333 351.701333 0 0 0-96.853333-56.746666z m-35.584 69.888c-14.336-32.298667-30.634667-56.490667-47.061333-72.106667-16.298667-15.530667-31.232-21.376-44.373333-21.376-13.141333 0-28.074667 5.845333-44.373334 21.333333-16.426667 15.658667-32.725333 39.850667-47.061333 72.106667-5.717333 12.928-11.093333 26.88-15.914667 41.813333 33.536 9.088 69.632 14.08 107.349334 14.08a410.026667 410.026667 0 0 0 107.349333-14.08c-4.864-14.933333-10.197333-28.885333-15.914667-41.813333z m-241.365333-26.026667a371.2 371.2 0 0 1 22.912-43.861333 351.701333 351.701333 0 0 0-96.853333 56.746666c17.194667 12.458667 36.053333 23.552 56.32 32.981334 5.376-16.170667 11.264-31.488 17.621333-45.866667z m-34.56 108.416A402.730667 402.730667 0 0 1 242.218667 285.866667a350.421333 350.421333 0 0 0-80.768 194.133333h148.48c1.792-51.029333 7.850667-99.669333 17.578666-144.128zM512 373.333333c-43.050667 0-84.608-5.674667-123.562667-16.213333-7.765333 37.632-12.8 79.018667-14.506666 122.88h276.138666a754.090667 754.090667 0 0 0-14.506666-122.88c-38.954667 10.538667-80.512 16.213333-123.562667 16.213333z" fill="#000000" /></svg>