<?xml version="1.0" standalone="no"?><!DOCTYPE svg PUBLIC "-//W3C//DTD SVG 1.1//EN" "http://www.w3.org/Graphics/SVG/1.1/DTD/svg11.dtd"><svg class="icon" width="32px" height="32.00px" viewBox="0 0 1024 1024" version="1.1" xmlns="http://www.w3.org/2000/svg"><path d="M680.234667 877.397333c171.093333-62.293333 227.413333-195.2 157.952-386.090666l-25.173334-69.632c-25.514667-70.186667-75.562667-100.565333-114.517333-86.4-8.704 2.986667-11.733333 9.386667-8.704 17.792l13.781333 38.186666c4.522667 12.373333 0.554667 21.333333-7.253333 24.149334-8.021333 2.901333-16.981333-1.365333-21.504-13.738667l-9.429333-26.112c-15.189333-42.069333-52.352-59.861333-88.533334-46.421333-16.810667 6.058667-21.504 15.445333-16.469333 29.312l18.517333 50.602666c4.181333 12.373333 0.256 21.205333-7.338666 24.149334-8.192 2.816-16.981333-1.493333-21.418667-13.738667l-17.152-46.805333c-17.152-47.274667-52.778667-59.605333-88.234667-46.848-15.402667 5.717333-21.12 16.128-16.213333 29.525333l34.944 95.872c4.266667 12.16 0.341333 21.205333-7.253333 23.893333-8.234667 3.072-16.981333-1.152-21.504-13.525333L326.272 163.925333c-10.965333-30.165333-36.394667-42.24-61.866667-32.768-26.112 9.472-38.144 35.072-27.392 65.28l153.002667 420.053334c3.413333 9.642667-1.194667 17.493333-8.106667 19.882666-5.973333 2.133333-12.629333 0.938667-20.394666-7.466666L252.586667 514.133333c-16.682667-17.834667-33.706667-21.162667-50.304-15.104-28.032 10.154667-37.12 34.986667-28.373334 58.368 2.944 8.192 7.424 15.146667 12.330667 21.461334l140.544 178.005333c102.570667 130.005333 230.528 165.546667 353.621333 120.576l-0.128-0.042667z" fill="#FFCC00" /><path d="M754.005333 342.442667a80.341333 80.341333 0 0 0-15.274666-7.04l-0.128-0.042667c-7.68-2.56-15.36-3.712-22.826667-3.413333a56.533333 56.533333 0 0 0-17.28 3.285333c-8.448 2.944-11.562667 9.045333-8.96 17.066667a13.952 13.952 0 0 0 0.256 0.768l4.352 12.074666 9.429333 26.112c4.522667 12.373333 0.554667 21.333333-7.253333 24.149334-7.978667 2.901333-16.938667-1.365333-21.461333-13.653334l-0.042667-0.085333-9.429333-26.112a96.896 96.896 0 0 0-5.12-11.776l-0.042667-0.042667-0.170667-0.341333a72.362667 72.362667 0 0 0-33.578666-33.066667 63.36 63.36 0 0 0-43.818667-3.072c-1.962667 0.554667-3.882667 1.194667-5.802667 1.877334-16.810667 6.058667-21.504 15.445333-16.469333 29.312l18.517333 50.602666v0.042667c4.181333 12.373333 0.213333 21.162667-7.338666 24.106667-8.149333 2.816-16.938667-1.450667-21.333334-13.653334l-0.085333-0.085333-17.152-46.805333a125.866667 125.866667 0 0 0-1.408-3.669334v-0.085333c-8.277333-20.736-20.309333-34.218667-34.304-41.386667-13.653333-7.04-29.098667-8.106667-44.8-4.096-2.56 0.682667-5.12 1.493333-7.68 2.389334-15.445333 5.717333-21.162667 16.128-16.213333 29.525333l34.901333 95.872c4.266667 12.16 0.341333 21.205333-7.253333 23.893333-8.192 3.072-16.938667-1.152-21.461334-13.44l-0.042666-0.085333-108.458667-297.642667c-10.965333-30.165333-36.394667-42.24-61.866667-32.768-26.112 9.472-38.144 35.072-27.392 65.28l153.002667 420.053334c3.413333 9.642667-1.194667 17.493333-8.106667 19.882666-5.973333 2.133333-12.629333 0.896-20.394666-7.466666L252.586667 514.133333c-16.682667-17.834667-33.706667-21.162667-50.304-15.104-28.032 10.154667-37.12 34.986667-28.373334 58.368 2.944 8.192 7.424 15.146667 12.330667 21.461334l140.544 178.005333c85.333333 108.245333 188.373333 150.954667 291.456 136.32 20.736-2.944 41.386667-8.192 61.994667-15.658667l0.085333-0.042666h0.085333l-0.128-0.085334h0.085334l0.085333-0.085333c21.162667-7.68 40.576-16.512 58.197333-26.325333 124.8-69.76 160.426667-192.426667 99.584-359.68l-25.173333-69.632c-14.122667-38.954667-35.84-65.621333-59.008-79.232z m-76.928-67.498667c43.264-15.530667 87.125333-4.138667 120.746667 19.669333 33.450667 23.722667 59.178667 60.757333 75.349333 105.173334l0.042667 0.128 25.088 69.546666 0.042667 0.042667c37.973333 104.277333 45.226667 202.752 10.24 287.530667-35.072 84.906667-107.434667 143.658667-202.922667 179.2a60.672 60.672 0 0 1-3.370667 1.322666c-73.813333 26.965333-151.296 30.336-226.176 6.101334-74.453333-24.149333-142.08-74.24-199.637333-147.157334l-140.501333-177.962666-0.341334-0.426667a141.568 141.568 0 0 1-21.845333-38.698667 108.373333 108.373333 0 0 1 2.133333-82.432c12.586667-28.032 36.266667-47.872 64.426667-58.112h0.042667a104.533333 104.533333 0 0 1 77.44 1.749334l-80.981334-222.293334a80.981333 80.981333 0 0 1-0.170666-0.426666c-9.813333-27.733333-10.965333-58.709333 1.493333-87.338667A110.122667 110.122667 0 0 1 242.346667 71.082667a108.373333 108.373333 0 0 1 87.68 4.693333c27.690667 14.165333 46.378667 38.784 56.362666 66.218667v0.085333l44.16 121.045333c28.629333-8.661333 61.568-9.088 92.8 5.845334 4.949333 2.389333 9.685333 5.034667 14.208 7.978666 6.229333-3.541333 12.202667-6.058667 17.28-7.893333a127.914667 127.914667 0 0 1 111.914667 10.325333c3.541333-1.834667 7.04-3.285333 10.325333-4.437333z" fill="#000000" /></svg>