<?xml version="1.0" standalone="no"?><!DOCTYPE svg PUBLIC "-//W3C//DTD SVG 1.1//EN" "http://www.w3.org/Graphics/SVG/1.1/DTD/svg11.dtd"><svg class="icon" width="32px" height="32.00px" viewBox="0 0 1024 1024" version="1.1" xmlns="http://www.w3.org/2000/svg"><path d="M416 257.408c0-84.224-86.144-141.013333-163.541333-107.861333l-85.333334 36.608A117.333333 117.333333 0 0 0 96 293.973333v472.618667c0 84.224 86.144 141.013333 163.541333 107.861333l85.333334-36.608A117.333333 117.333333 0 0 0 416 730.026667V257.408zM928 257.408c0-84.224-86.144-141.013333-163.541333-107.861333l-85.333334 36.608A117.333333 117.333333 0 0 0 608 293.973333v472.618667c0 84.224 86.144 141.013333 163.541333 107.861333l85.333334-36.608a117.333333 117.333333 0 0 0 71.125333-107.818666V257.408z" fill="#FFCC00" /><path d="M259.541333 874.453333L384 821.12l243.413333 104.277333a32 32 0 0 0 25.173334 0l204.288-87.552a117.333333 117.333333 0 0 0 71.125333-107.818666V257.408c0-84.224-86.144-141.013333-163.541333-107.861333L640 202.88 396.586667 98.602667a32 32 0 0 0-25.301334 0L167.125333 186.197333A117.333333 117.333333 0 0 0 96 293.973333v472.618667c0 84.224 86.144 141.013333 163.541333 107.861333zM192.341333 244.906667L352 176.512v588.672l-117.674667 50.432a53.333333 53.333333 0 0 1-74.325333-49.066667V293.973333c0-21.333333 12.714667-40.618667 32.341333-49.024z m479.658667 13.866666l117.674667-50.432a53.333333 53.333333 0 0 1 74.325333 49.066667V730.026667c0 21.333333-12.714667 40.618667-32.341333 49.024l-159.658667 68.437333V258.816z m-256-82.304l192 82.304v588.672l-192-82.304V176.512z" fill="#000000" /></svg>