<?xml version="1.0" standalone="no"?><!DOCTYPE svg PUBLIC "-//W3C//DTD SVG 1.1//EN" "http://www.w3.org/Graphics/SVG/1.1/DTD/svg11.dtd"><svg class="icon" width="32px" height="32.00px" viewBox="0 0 1024 1024" version="1.1" xmlns="http://www.w3.org/2000/svg"><path d="M128 232.106667a85.333333 85.333333 0 0 1 102.058667-83.712l256 51.2A85.333333 85.333333 0 0 1 554.666667 283.306667v551.253333a85.333333 85.333333 0 0 1-102.058667 83.712l-256-51.2A85.333333 85.333333 0 0 1 128 783.36V232.106667z" fill="#FFCC00" /><path d="M96 213.333333A117.333333 117.333333 0 0 1 213.333333 96h554.666667A117.333333 117.333333 0 0 1 885.333333 213.333333v64a32 32 0 0 1-64 0V213.333333c0-29.44-23.893333-53.333333-53.333333-53.333333h-316.842667l41.173334 8.234667A117.333333 117.333333 0 0 1 586.666667 283.306667v538.026666H768c29.44 0 53.333333-23.893333 53.333333-53.333333v-96a32 32 0 0 1 64 0V768A117.333333 117.333333 0 0 1 768 885.333333h-192.810667a117.376 117.376 0 0 1-128.853333 64.298667l-256-51.2A117.333333 117.333333 0 0 1 96 783.36V213.333333z m64 18.773334v551.253333c0 25.429333 17.92 47.36 42.88 52.309333l256 51.2a53.333333 53.333333 0 0 0 63.786667-52.309333V283.306667a53.333333 53.333333 0 0 0-42.88-52.309334l-256-51.2A53.333333 53.333333 0 0 0 160 232.106667z" fill="#000000" /><path d="M768 309.333333a32 32 0 0 1 32 32v256a32 32 0 0 1-64 0V341.333333a32 32 0 0 1 32-32zM714.666667 426.666667a32 32 0 0 0-64 0v85.333333a32 32 0 0 0 64 0v-85.333333zM853.333333 394.666667a32 32 0 0 1 32 32v85.333333a32 32 0 0 1-64 0v-85.333333a32 32 0 0 1 32-32zM970.666667 384a32 32 0 0 0-64 0v170.666667a32 32 0 0 0 64 0V384z" fill="#000000" /></svg>