<?xml version="1.0" standalone="no"?><!DOCTYPE svg PUBLIC "-//W3C//DTD SVG 1.1//EN" "http://www.w3.org/Graphics/SVG/1.1/DTD/svg11.dtd"><svg class="icon" width="32px" height="32.00px" viewBox="0 0 1024 1024" version="1.1" xmlns="http://www.w3.org/2000/svg"><path d="M725.333333 426.666667a170.666667 170.666667 0 1 0 0-341.333334 170.666667 170.666667 0 0 0 0 341.333334zM213.333333 853.333333a128 128 0 1 0 0-256 128 128 0 0 0 0 256z" fill="#FFCC00" /><path d="M896 256a170.666667 170.666667 0 0 1-266.581333 141.184l-49.792 49.792c11.264 19.072 17.706667 41.301333 17.706666 65.024 0 17.28-3.413333 33.749333-9.642666 48.768l43.392 32.554667a192 192 0 1 1-44.202667 46.848l-37.589333-28.202667A127.445333 127.445333 0 0 1 469.333333 640a127.402667 127.402667 0 0 1-74.026666-23.594667l-65.664 55.466667a128 128 0 1 1-40.448-49.621333l64.768-54.698667A127.488 127.488 0 0 1 341.333333 512c0-23.722667 6.442667-45.952 17.706667-65.024L283.989333 371.925333a106.666667 106.666667 0 1 1 45.226667-45.226666l75.093333 75.008A127.402667 127.402667 0 0 1 469.333333 384c23.722667 0 45.952 6.442667 65.024 17.706667l49.792-49.792A170.666667 170.666667 0 1 1 896 256z m-64 0a106.666667 106.666667 0 1 0-213.333333 0 106.666667 106.666667 0 0 0 213.333333 0z m-554.666667 21.333333a42.666667 42.666667 0 1 0-85.333333 0 42.666667 42.666667 0 0 0 85.333333 0zM213.333333 789.333333a64 64 0 1 0 0-128 64 64 0 0 0 0 128z m533.333334 85.333334a128 128 0 1 0 0-256 128 128 0 0 0 0 256z" fill="#000000" /></svg>