<?xml version="1.0" standalone="no"?><!DOCTYPE svg PUBLIC "-//W3C//DTD SVG 1.1//EN" "http://www.w3.org/Graphics/SVG/1.1/DTD/svg11.dtd"><svg class="icon" width="32px" height="32.00px" viewBox="0 0 1024 1024" version="1.1" xmlns="http://www.w3.org/2000/svg"><path d="M512 192a85.333333 85.333333 0 0 0-85.333333 85.333333v14.549334a256 256 0 1 0 170.666666 0V277.333333a85.333333 85.333333 0 0 0-85.333333-85.333333z" fill="#FFCC00" /><path d="M573.994667 152.106667a138.666667 138.666667 0 0 0-123.989334 0l-9.045333 4.522666a32 32 0 1 1-28.586667-57.258666l8.96-4.48a202.666667 202.666667 0 0 1 181.333334 0l8.96 4.48a32 32 0 1 1-28.586667 57.258666l-9.045333-4.522666zM557.909333 425.813333a32 32 0 0 0-49.152-40.96l-106.666666 128A32 32 0 0 0 426.666667 565.333333h102.357333l-62.933333 75.52a32 32 0 0 0 49.152 40.96l106.666666-128A32 32 0 0 0 597.333333 501.333333h-102.357333l62.933333-75.52z" fill="#000000" /><path d="M512 160a117.333333 117.333333 0 0 0-117.12 110.165333 288.042667 288.042667 0 1 0 234.24 0A117.333333 117.333333 0 0 0 512 160zM458.666667 277.333333a53.333333 53.333333 0 1 1 106.666666 0v14.549334c0 13.568 8.533333 25.685333 21.333334 30.208A224.085333 224.085333 0 0 1 512 757.333333a224 224 0 0 1-74.666667-435.242666c12.8-4.522667 21.333333-16.64 21.333334-30.208V277.333333zM544 874.666667a32 32 0 0 0-64 0v42.666666a32 32 0 0 0 64 0v-42.666666z" fill="#000000" /><path d="M683.434667 800.896a32 32 0 0 1 43.733333 11.690667l21.333333 36.992a32 32 0 1 1-55.466666 32l-21.333334-36.949334a32 32 0 0 1 11.733334-43.733333zM853.333333 501.333333a32 32 0 0 0 0 64h42.666667a32 32 0 0 0 0-64h-42.666667zM782.933333 688a32 32 0 0 1 43.733334-11.690667l36.949333 21.333334a32 32 0 1 1-32 55.424l-36.949333-21.333334a32 32 0 0 1-11.690667-43.733333zM128 501.333333a32 32 0 0 0 0 64h42.666667a32 32 0 0 0 0-64H128zM148.48 741.333333a32 32 0 0 1 11.733333-43.690666l36.949334-21.333334a32 32 0 0 1 32 55.381334l-36.949334 21.333333a32 32 0 0 1-43.733333-11.690667zM275.370667 849.578667a32 32 0 1 0 55.466666 32l21.333334-36.949334a32 32 0 1 0-55.466667-32l-21.333333 36.949334z" fill="#000000" /></svg>