<?xml version="1.0" standalone="no"?><!DOCTYPE svg PUBLIC "-//W3C//DTD SVG 1.1//EN" "http://www.w3.org/Graphics/SVG/1.1/DTD/svg11.dtd"><svg class="icon" width="32px" height="32.00px" viewBox="0 0 1024 1024" version="1.1" xmlns="http://www.w3.org/2000/svg"><path d="M320 85.333333a85.333333 85.333333 0 0 0-85.333333 85.333334v85.333333H156.458667C117.205333 256 85.333333 287.829333 85.333333 327.125333A142.208 142.208 0 0 0 227.541333 469.333333h10.666667a256.085333 256.085333 0 0 0 252.458667 213.333334h42.666666a256.085333 256.085333 0 0 0 252.458667-213.333334h10.666667A142.208 142.208 0 0 0 938.666667 327.125333C938.666667 287.872 906.837333 256 867.541333 256H789.333333V170.666667a85.333333 85.333333 0 0 0-85.333333-85.333334h-384zM341.333333 768a85.333333 85.333333 0 1 0 0 170.666667h341.333334a85.333333 85.333333 0 1 0 0-170.666667H341.333333z" fill="#FFCC00" /><path d="M499.84 293.461333a12.8 12.8 0 0 1 24.32 0l13.696 42.154667a12.8 12.8 0 0 0 12.202667 8.832h44.288a12.8 12.8 0 0 1 7.509333 23.168l-35.84 26.026667a12.8 12.8 0 0 0-4.650667 14.293333l13.696 42.154667a12.8 12.8 0 0 1-19.712 14.293333l-35.84-26.026667a12.8 12.8 0 0 0-15.018666 0l-35.84 26.026667a12.8 12.8 0 0 1-19.712-14.293333l13.653333-42.154667a12.8 12.8 0 0 0-4.608-14.293333l-35.84-26.026667a12.8 12.8 0 0 1 7.509333-23.168h44.288a12.8 12.8 0 0 0 12.202667-8.832l13.653333-42.154667z" fill="#000000" /><path d="M785.792 469.333333a256.085333 256.085333 0 0 1-241.792 213.12V768H682.666667a85.333333 85.333333 0 1 1 0 170.666667H341.333333a85.333333 85.333333 0 1 1 0-170.666667h138.666667v-85.546667A256.085333 256.085333 0 0 1 238.208 469.333333h-10.666667A142.208 142.208 0 0 1 85.333333 327.125333C85.333333 287.872 117.162667 256 156.458667 256H234.666667V170.666667a85.333333 85.333333 0 0 1 85.333333-85.333334h384a85.333333 85.333333 0 0 1 85.333333 85.333334v85.333333h78.208C906.794667 256 938.666667 287.829333 938.666667 327.125333A142.208 142.208 0 0 1 796.458667 469.333333h-10.666667zM320 149.333333A21.333333 21.333333 0 0 0 298.666667 170.666667v256a192 192 0 0 0 192 192h42.666666A192 192 0 0 0 725.333333 426.666667V170.666667a21.333333 21.333333 0 0 0-21.333333-21.333334h-384z m469.333333 256h7.125334c43.178667 0 78.208-34.986667 78.208-78.208a7.125333 7.125333 0 0 0-7.125334-7.125333H789.333333v85.333333z m-554.666666-85.333333H156.458667a7.125333 7.125333 0 0 0-7.125334 7.125333c0 43.178667 34.986667 78.208 78.208 78.208H234.666667v-85.333333z m106.666666 512a21.333333 21.333333 0 0 0 0 42.666667h341.333334a21.333333 21.333333 0 0 0 0-42.666667H341.333333z" fill="#000000" /></svg>