<?xml version="1.0" standalone="no"?><!DOCTYPE svg PUBLIC "-//W3C//DTD SVG 1.1//EN" "http://www.w3.org/Graphics/SVG/1.1/DTD/svg11.dtd"><svg class="icon" width="32px" height="32.00px" viewBox="0 0 1024 1024" version="1.1" xmlns="http://www.w3.org/2000/svg"><path d="M733.738667 640a256 256 0 1 0-443.52 0h443.52z" fill="#FFCC00" /><path d="M512 74.666667a32 32 0 0 1 32 32v85.333333a32 32 0 0 1-64 0v-85.333333a32 32 0 0 1 32-32zM949.333333 512a32 32 0 0 1-32 32h-85.333333a32 32 0 0 1 0-64h85.333333a32 32 0 0 1 32 32zM192 544a32 32 0 0 0 0-64h-85.333333a32 32 0 0 0 0 64h85.333333zM202.752 202.752a32 32 0 0 1 45.226667 0l60.373333 60.330667a32 32 0 0 1-45.226667 45.269333L202.709333 248.021333a32 32 0 0 1 0-45.226666zM821.248 248.021333a32 32 0 1 0-45.226667-45.226666l-60.373333 60.288a32 32 0 0 0 45.226667 45.269333l60.373333-60.330667zM138.666667 896a32 32 0 0 1 32-32h725.333333a32 32 0 0 1 0 64H170.666667a32 32 0 0 1-32-32z" fill="#000000" /><path d="M768 512c0 33.962667-6.613333 66.346667-18.602667 96H896a32 32 0 0 1 0 64H170.666667a32 32 0 0 1 0-64h103.936A256 256 0 1 1 768 512z m-64 0a192 192 0 1 0-358.314667 96h332.629334A191.146667 191.146667 0 0 0 704 512zM128 736a32 32 0 0 0 0 64h725.333333a32 32 0 0 0 0-64H128z" fill="#000000" /></svg>