<?xml version="1.0" standalone="no"?><!DOCTYPE svg PUBLIC "-//W3C//DTD SVG 1.1//EN" "http://www.w3.org/Graphics/SVG/1.1/DTD/svg11.dtd"><svg class="icon" width="32px" height="32.00px" viewBox="0 0 1024 1024" version="1.1" xmlns="http://www.w3.org/2000/svg"><path d="M85.333333 256a85.333333 85.333333 0 0 1 85.333334-85.333333h341.333333a85.333333 85.333333 0 0 1 85.333333 85.333333v298.666667a85.333333 85.333333 0 0 1-85.333333 85.333333H170.666667a85.333333 85.333333 0 0 1-85.333334-85.333333V256z" fill="#FFCC00" /><path d="M170.666667 138.666667A117.333333 117.333333 0 0 0 53.333333 256v298.666667c0 39.466667 19.456 74.368 49.322667 95.616 9.557333-19.413333 22.656-36.778667 38.485333-51.2A53.290667 53.290667 0 0 1 117.333333 554.666667V256c0-29.44 23.893333-53.333333 53.333334-53.333333h341.333333c29.44 0 53.333333 23.893333 53.333333 53.333333v298.666667c0 29.44-23.893333 53.333333-53.333333 53.333333H379.946667c17.066667 18.048 30.293333 39.850667 38.229333 64H512c33.621333 0 63.957333-14.122667 85.333333-36.821333 5.248 5.589333 11.093333 10.666667 17.322667 15.104a170.666667 170.666667 0 0 1 306.688 0A117.205333 117.205333 0 0 0 970.666667 554.666667v-53.333334a117.333333 117.333333 0 0 0-29.013334-77.226666l-102.741333-117.333334a117.333333 117.333333 0 0 0-88.32-40.106666H682.666667c-19.2 0-37.333333 4.608-53.333334 12.8V256A117.333333 117.333333 0 0 0 512 138.666667H170.666667z m736 362.666666h-277.333334V384c0-29.44 23.893333-53.333333 53.333334-53.333333h67.968c15.36 0 29.994667 6.656 40.106666 18.218666l102.741334 117.376c8.490667 9.728 13.184 22.186667 13.184 35.072z" fill="#000000" /><path d="M256 608a117.333333 117.333333 0 1 0 0 234.666667 117.333333 117.333333 0 0 0 0-234.666667zM202.666667 725.333333a53.333333 53.333333 0 1 1 106.666666 0 53.333333 53.333333 0 0 1-106.666666 0zM768 608a117.333333 117.333333 0 1 0 0 234.666667 117.333333 117.333333 0 0 0 0-234.666667zM714.666667 725.333333a53.333333 53.333333 0 1 1 106.666666 0 53.333333 53.333333 0 0 1-106.666666 0z" fill="#000000" /></svg>