<?xml version="1.0" standalone="no"?><!DOCTYPE svg PUBLIC "-//W3C//DTD SVG 1.1//EN" "http://www.w3.org/Graphics/SVG/1.1/DTD/svg11.dtd"><svg class="icon" width="32px" height="32.00px" viewBox="0 0 1024 1024" version="1.1" xmlns="http://www.w3.org/2000/svg"><path d="M170.666667 256a170.666667 170.666667 0 0 1 170.666666-170.666667h256a170.666667 170.666667 0 0 1 170.666667 170.666667v512a170.666667 170.666667 0 0 1-170.666667 170.666667H341.333333a170.666667 170.666667 0 0 1-170.666666-170.666667V256z" fill="#FFCC00" /><path d="M341.333333 53.333333A202.666667 202.666667 0 0 0 138.666667 256v512A202.666667 202.666667 0 0 0 341.333333 970.666667h256A202.666667 202.666667 0 0 0 800 768v-9.301333c-20.394667 8.106667-42.666667 10.24-64 6.186666V768A138.666667 138.666667 0 0 1 597.333333 906.666667H341.333333A138.666667 138.666667 0 0 1 202.666667 768V256A138.666667 138.666667 0 0 1 341.333333 117.333333h256A138.666667 138.666667 0 0 1 736 256v128h64V256A202.666667 202.666667 0 0 0 597.333333 53.333333H341.333333z" fill="#000000" /><path d="M352 810.666667a32 32 0 0 1 32-32h170.666667a32 32 0 0 1 0 64H384a32 32 0 0 1-32-32zM554.666667 544v34.133333a117.333333 117.333333 0 0 0 117.333333 117.333334h23.936c2.389333 0 4.608 1.066667 6.144 2.858666a71.936 71.936 0 0 0 110.506667 0 7.936 7.936 0 0 1 6.101333-2.858666h23.978667a117.333333 117.333333 0 0 0 117.333333-117.333334v-34.133333A117.333333 117.333333 0 0 0 842.666667 426.666667h-170.666667A117.333333 117.333333 0 0 0 554.666667 544z m117.333333 42.666667a21.333333 21.333333 0 1 1 0-42.666667 21.333333 21.333333 0 0 1 0 42.666667z m106.666667-21.333334a21.333333 21.333333 0 1 1-42.666667 0 21.333333 21.333333 0 0 1 42.666667 0z m64 21.333334a21.333333 21.333333 0 1 1 0-42.666667 21.333333 21.333333 0 0 1 0 42.666667z" fill="#000000" /></svg>