<?xml version="1.0" standalone="no"?><!DOCTYPE svg PUBLIC "-//W3C//DTD SVG 1.1//EN" "http://www.w3.org/Graphics/SVG/1.1/DTD/svg11.dtd"><svg class="icon" width="32px" height="32.00px" viewBox="0 0 1024 1024" version="1.1" xmlns="http://www.w3.org/2000/svg"><path d="M85.333333 256a170.666667 170.666667 0 0 1 170.666667-170.666667h512a170.666667 170.666667 0 0 1 170.666667 170.666667v512a170.666667 170.666667 0 0 1-170.666667 170.666667H256a170.666667 170.666667 0 0 1-170.666667-170.666667V256z" fill="#FFCC00" /><path d="M709.290667 451.584a32 32 0 1 0-53.248 35.498667l53.76 80.64c11.946667 17.92 11.946667 41.301333 0 59.178666l-53.76 80.682667a32 32 0 0 0 53.248 35.498667l53.76-80.64a117.333333 117.333333 0 0 0 0-130.176l-53.76-80.682667zM359.082667 442.709333a32 32 0 0 1 8.874666 44.373334l-53.76 80.64c-11.946667 17.92-11.946667 41.301333 0 59.178666l53.76 80.682667a32 32 0 1 1-53.248 35.498667l-53.76-80.64a117.333333 117.333333 0 0 1 0-130.176l53.76-80.682667a32 32 0 0 1 44.373334-8.874667zM585.002667 479.445333a32 32 0 0 0-60.714667-20.224l-85.333333 256a32 32 0 0 0 60.714666 20.224l85.333334-256z" fill="#000000" /><path d="M91.221333 211.456C87.381333 225.706667 85.333333 240.64 85.333333 256v512a170.666667 170.666667 0 0 0 170.666667 170.666667h512a170.666667 170.666667 0 0 0 170.666667-170.666667V256a170.752 170.752 0 0 0-170.666667-170.666667H256a170.752 170.752 0 0 0-164.778667 126.122667zM149.333333 298.666667h725.333334v469.333333a106.666667 106.666667 0 0 1-106.666667 106.666667H256A106.666667 106.666667 0 0 1 149.333333 768V298.666667z" fill="#000000" /></svg>