<?xml version="1.0" standalone="no"?><!DOCTYPE svg PUBLIC "-//W3C//DTD SVG 1.1//EN" "http://www.w3.org/Graphics/SVG/1.1/DTD/svg11.dtd"><svg class="icon" width="32px" height="32.00px" viewBox="0 0 1024 1024" version="1.1" xmlns="http://www.w3.org/2000/svg"><path d="M682.666667 736a181.333333 181.333333 0 0 0 38.570666-358.570667l-33.450666-7.253333-16.384-30.037333A181.290667 181.290667 0 0 0 512 245.333333c-68.693333 0-128.597333 38.186667-159.402667 94.805334l-16.384 30.08-33.450666 7.210666a181.333333 181.333333 0 1 0 53.333333 357.973334l43.733333-3.498667 59.392-59.349333a74.666667 74.666667 0 0 1 126.72 63.445333H682.666667z" fill="#FFCC00" /><path d="M266.154667 276.565333A287.829333 287.829333 0 0 1 512 138.666667a287.829333 287.829333 0 0 1 245.845333 137.898666A288 288 0 0 1 682.666667 842.666667h-178.773334l30.72 30.72a32 32 0 1 1-45.226666 45.226666l-85.333334-85.333333a32 32 0 0 1 0-45.226667l85.333334-85.333333a32 32 0 1 1 45.226666 45.226667l-30.72 30.72H682.666667a224 224 0 0 0 47.573333-442.965334l-14.336-3.072-6.997333-12.885333A223.957333 223.957333 0 0 0 512 202.666667a223.957333 223.957333 0 0 0-196.906667 117.077333l-6.997333 12.885333-14.336 3.072a224 224 0 1 0 65.749333 442.24 74.88 74.88 0 0 0-0.554666 64.213334A288 288 0 0 1 266.154667 276.608z" fill="#000000" /></svg>