<?xml version="1.0" standalone="no"?><!DOCTYPE svg PUBLIC "-//W3C//DTD SVG 1.1//EN" "http://www.w3.org/Graphics/SVG/1.1/DTD/svg11.dtd"><svg class="icon" width="32px" height="32.00px" viewBox="0 0 1024 1024" version="1.1" xmlns="http://www.w3.org/2000/svg"><path fill="#bfbfbf" d="M938.7 0H654.2c-47 0-85.3 38.3-85.3 85.3v284.4c0 47 38.3 85.3 85.3 85.3h284.4c47 0 85.3-38.3 85.3-85.3V85.3c0.1-47-38.2-85.3-85.2-85.3z m28.4 369.8c0 15.6-12.8 28.4-28.4 28.4H654.2c-15.6 0-28.4-12.8-28.4-28.4V85.3c0-15.6 12.8-28.4 28.4-28.4h284.4c15.6 0 28.4 12.8 28.4 28.4v284.5zM938.7 568.9H654.2c-47 0-85.3 38.3-85.3 85.3v284.4c0 47 38.3 85.3 85.3 85.3h284.4c47 0 85.3-38.3 85.3-85.3V654.2c0.1-47-38.2-85.3-85.2-85.3z m28.4 369.8c0 15.6-12.8 28.4-28.4 28.4H654.2c-15.6 0-28.4-12.8-28.4-28.4V654.2c0-15.6 12.8-28.4 28.4-28.4h284.4c15.6 0 28.4 12.8 28.4 28.4v284.5zM371.5 568.9H87.1c-47 0-85.3 38.3-85.3 85.3v284.4c0 47 38.3 85.3 85.3 85.3h284.4c47 0 85.3-38.3 85.3-85.3V654.2c0.1-47-38.2-85.3-85.3-85.3zM400 938.7c0 15.6-12.8 28.4-28.4 28.4H87.1c-15.6 0-28.4-12.8-28.4-28.4V654.2c0-15.6 12.8-28.4 28.4-28.4h284.4c15.6 0 28.4 12.8 28.4 28.4v284.5zM227.6 0C102.1 0 0 102.1 0 227.6s102.1 227.6 227.6 227.6 227.6-102.1 227.6-227.6S353.1 0 227.6 0z m0 398.2c-94.1 0-170.7-76.6-170.7-170.7S133.5 56.9 227.6 56.9s170.7 76.6 170.7 170.7-76.7 170.6-170.7 170.6z"  /></svg>